<?xml version="1.0" standalone="no"?>
<!DOCTYPE svg PUBLIC "-//W3C//DTD SVG 20010904//EN"
 "http://www.w3.org/TR/2001/REC-SVG-20010904/DTD/svg10.dtd">
<svg version="1.0" xmlns="http://www.w3.org/2000/svg"
 width="574.000000pt" height="574.000000pt" viewBox="0 0 574.000000 574.000000"
 preserveAspectRatio="xMidYMid meet">
<metadata>
Created by potrace 1.11, written by Peter Selinger 2001-2013
</metadata>
<g transform="translate(0.000000,574.000000) scale(0.100000,-0.100000)"
fill="#000000" stroke="none">
<path d="M1009 3453 c0 -1259 -2 -2306 -4 -2328 -8 -113 -45 -222 -93 -271
-37 -37 -116 -72 -182 -81 -65 -8 -215 -8 -323 1 l-77 6 0 -370 c0 -289 3
-370 13 -371 6 0 21 -2 32 -4 125 -21 237 -29 415 -30 218 0 307 11 448 51
158 46 289 122 383 221 43 46 119 163 148 228 20 46 59 180 71 243 5 31 12 66
14 77 2 11 7 54 11 95 4 41 10 93 12 115 2 22 5 1090 6 2373 l2 2332 -437 0
-438 0 -1 -2287z"/>
<path d="M2302 5333 l3 -408 450 0 450 0 5 -2429 5 -2428 400 0 c220 1 416 1
435 2 l35 0 0 2427 0 2428 454 0 c419 0 454 1 460 17 3 10 6 192 5 405 l-1
388 -1352 3 -1351 2 2 -407z"/>
<path d="M4968 844 c-2 -1 -20 -5 -41 -8 -21 -3 -47 -11 -58 -16 -10 -6 -19
-7 -19 -3 0 4 -4 3 -8 -2 -4 -6 -20 -17 -37 -25 -66 -34 -150 -144 -170 -225
-14 -58 -15 -71 -17 -130 -5 -258 169 -441 410 -431 68 3 182 33 182 48 0 4 6
8 13 8 20 0 94 75 126 127 54 90 78 261 48 358 -46 152 -176 275 -307 291 -50
7 -119 11 -122 8z m167 -122 c136 -71 196 -224 160 -407 -26 -134 -125 -216
-267 -221 -187 -6 -316 138 -310 346 5 155 81 266 207 301 52 14 166 4 210
-19z"/>
<path d="M4854 433 l1 -198 51 -2 51 -2 -1 74 c-1 44 3 76 10 79 22 8 78 -3
89 -17 6 -9 12 -39 14 -68 1 -29 4 -56 7 -61 3 -4 27 -8 54 -8 l48 0 -4 77
c-3 59 -8 81 -24 98 l-20 21 25 24 c44 41 31 122 -26 157 -27 18 -50 21 -153
22 l-122 2 0 -198z m200 111 c19 -7 22 -59 4 -70 -15 -10 -88 -15 -89 -6 -1 4
-2 24 -3 45 -2 37 -2 37 35 37 21 0 44 -3 53 -6z"/>
</g>
</svg>
