<svg xmlns="http://www.w3.org/2000/svg" viewBox="0 0 353.54572 400"><defs><style>.a{fill:#fff;}</style></defs><title>Webpack-400H</title><path class="a" d="M205,0,28.22714,99.98859V300.01141L205,400l176.77289-99.98859V99.98859Zm5.84674,28.0918,142.92566,80.84961-50.611,29.2337-.73084-.41107L210.84671,87.42719Zm-12.24158,0V87.42719l-91.58392,50.38257-.73083.41107-50.6109-29.27942ZM49.69565,119.63,100.672,149.0921V255.06451L49.69565,284.481ZM198.60513,371.95386,59.24234,293.11407l52.4837-30.33L198.60513,310.563Zm0-75.36829-85.69147-47.13947V156.12653l85.69147,49.469Zm6.12079-101.58728-86.01117-49.65173,86.01117-47.27643,86.01123,47.27643Zm91.81226-38.87177v93.3653l-85.69141,47.09375V205.59552ZM210.84677,371.95386V310.563l86.83337-47.77893,52.52942,30.33ZM359.7562,284.481l-50.97632-29.41644V149.0921L359.7562,119.63Z" transform="translate(-28.22714)"/></svg>